<svg width="14" height="14" viewBox="0 0 14 14" fill="none" xmlns="http://www.w3.org/2000/svg">
<path d="M7 0C10.864 0 14 3.136 14 7C14 10.864 10.864 14 7 14C3.136 14 0 10.864 0 7C0 3.136 3.136 0 7 0ZM7 1.4C3.906 1.4 1.4 3.906 1.4 7C1.4 10.094 3.906 12.6 7 12.6C10.094 12.6 12.6 10.094 12.6 7C12.6 3.906 10.094 1.4 7 1.4ZM7 3.5C8.274 3.5 9.3891 4.1811 10.0016 5.1996L8.8018 5.9199C8.61298 5.60507 8.34493 5.34524 8.02438 5.16631C7.70382 4.98739 7.34196 4.89562 6.97488 4.90016C6.6078 4.9047 6.24832 5.00539 5.93229 5.19219C5.61626 5.379 5.35472 5.64538 5.17375 5.96479C4.99278 6.28419 4.8987 6.64546 4.9009 7.01256C4.90309 7.37966 5.00149 7.73978 5.18626 8.057C5.37104 8.37421 5.63575 8.63745 5.95399 8.82046C6.27223 9.00347 6.63289 9.09985 7 9.1C7.36269 9.10024 7.71926 9.00647 8.03492 8.82785C8.35057 8.64922 8.61455 8.39184 8.8011 8.0808L10.0016 8.8004C9.60821 9.45743 9.01015 9.96728 8.29915 10.2517C7.58814 10.5362 6.80345 10.5796 6.06543 10.3752C5.32741 10.1708 4.6768 9.73001 4.2134 9.12033C3.74999 8.51066 3.49938 7.7658 3.5 7C3.5 5.068 5.068 3.5 7 3.5Z" fill="#CDCDCD"/>
</svg>
